# xmcd
#
# Track frame offsets:
#	150
#	27205
#	65069
#	101624
#	151154
#	179541
#	220635
#
# Disc length: 3258 seconds
#
# Revision: 1
# Processed by: cddbd v1.5.2PL0 Copyright (c) Steve Scherf et al.
# Submitted via: audiograbber 1.83.01
#
DISCID=580cb807
DTITLE=Brian Stoltz - Up All Night Live
DYEAR=2007
DGENRE=Blues
TTITLE0=My Debbie Lou
TTITLE1=Hoodoo Thing
TTITLE2=War Song
TTITLE3=I Been HooDood
TTITLE4=Ring of Fire
TTITLE5=Funky Miracle/Rainy Day Women
TTITLE6=All Along The Watchtower
EXTD=
EXTT0=
EXTT1=
EXTT2=
EXTT3=
EXTT4=
EXTT5=
EXTT6=
PLAYORDER=
